<svg width="24" height="24" viewBox="0 0 24 24" fill="none" xmlns="http://www.w3.org/2000/svg">
<path d="M21.5459 7.93943C21.2646 7.65822 20.8832 7.50025 20.4854 7.50025C20.0877 7.50025 19.7062 7.65822 19.4249 7.93943L11.9999 15.3644L4.57493 7.93943C4.29202 7.66619 3.91312 7.515 3.51982 7.51842C3.12653 7.52183 2.75031 7.67959 2.4722 7.9577C2.19409 8.23581 2.03633 8.61203 2.03292 9.00532C2.0295 9.39862 2.18069 9.77752 2.45393 10.0604L10.9394 18.5459C11.2207 18.8271 11.6022 18.9851 11.9999 18.9851C12.3977 18.9851 12.7791 18.8271 13.0604 18.5459L21.5459 10.0604C21.8271 9.77914 21.9851 9.39767 21.9851 8.99993C21.9851 8.60218 21.8271 8.22072 21.5459 7.93943Z" fill="#036147"/>
</svg>
