<svg width="100" height="101" viewBox="0 0 100 101" fill="none" xmlns="http://www.w3.org/2000/svg">
<rect y="0.5" width="100" height="100" rx="50" fill="url(#paint0_linear_321_1529)"/>
<path d="M44.3749 37.2292C44.3749 35.6047 45.0202 34.0468 46.1689 32.8981C47.3175 31.7495 48.8755 31.1042 50.4999 31.1042C52.1244 31.1042 53.6823 31.7495 54.8309 32.8981C55.9796 34.0468 56.6249 35.6047 56.6249 37.2292C56.6249 38.8536 55.9796 40.4115 54.8309 41.5602C53.6823 42.7089 52.1244 43.3542 50.4999 43.3542C48.8755 43.3542 47.3175 42.7089 46.1689 41.5602C45.0202 40.4115 44.3749 38.8536 44.3749 37.2292ZM63.7707 33.1458C62.417 33.1458 61.1188 33.6836 60.1616 34.6408C59.2043 35.598 58.6666 36.8963 58.6666 38.25C58.6666 39.6037 59.2043 40.902 60.1616 41.8592C61.1188 42.8164 62.417 43.3542 63.7707 43.3542C65.1245 43.3542 66.4227 42.8164 67.3799 41.8592C68.3372 40.902 68.8749 39.6037 68.8749 38.25C68.8749 36.8963 68.3372 35.598 67.3799 34.6408C66.4227 33.6836 65.1245 33.1458 63.7707 33.1458ZM37.2291 33.1458C35.8754 33.1458 34.5771 33.6836 33.6199 34.6408C32.6627 35.598 32.1249 36.8963 32.1249 38.25C32.1249 39.6037 32.6627 40.902 33.6199 41.8592C34.5771 42.8164 35.8754 43.3542 37.2291 43.3542C38.5828 43.3542 39.8811 42.8164 40.8383 41.8592C41.7955 40.902 42.3333 39.6037 42.3333 38.25C42.3333 36.8963 41.7955 35.598 40.8383 34.6408C39.8811 33.6836 38.5828 33.1458 37.2291 33.1458ZM45.651 45.3958C44.5003 45.3958 43.3968 45.8529 42.5831 46.6666C41.7695 47.4802 41.3124 48.5837 41.3124 49.7344V60.7083C41.3124 63.145 42.2804 65.4819 44.0034 67.2049C45.7264 68.9279 48.0632 69.8958 50.4999 69.8958C52.9366 69.8958 55.2735 68.9279 56.9965 67.2049C58.7194 65.4819 59.6874 63.145 59.6874 60.7083V49.7344C59.6874 48.5837 59.2303 47.4802 58.4167 46.6666C57.6031 45.8529 56.4995 45.3958 55.3489 45.3958H45.651ZM39.2708 49.7344C39.2708 48.101 39.8853 46.6096 40.8959 45.4806C40.6129 45.4241 40.325 45.3958 40.0364 45.3958H34.4218C33.2711 45.3958 32.1676 45.8529 31.354 46.6666C30.5403 47.4802 30.0833 48.5837 30.0833 49.7344V59.6875C30.0829 60.9215 30.4022 62.1346 31.0099 63.2086C31.6176 64.2827 32.4931 65.181 33.5512 65.8161C34.6092 66.4513 35.8137 66.8016 37.0473 66.833C38.281 66.8644 39.5017 66.5758 40.5907 65.9952C39.7213 64.3688 39.2679 62.5525 39.2708 60.7083V49.7344ZM61.7291 60.7083C61.7291 62.6193 61.2513 64.4191 60.4091 65.9952C61.4981 66.5758 62.7188 66.8644 63.9525 66.833C65.1861 66.8016 66.3906 66.4513 67.4487 65.8161C68.5067 65.181 69.3822 64.2827 69.9899 63.2086C70.5977 62.1346 70.9169 60.9215 70.9166 59.6875V49.7344C70.9166 48.5837 70.4595 47.4802 69.6459 46.6666C68.8322 45.8529 67.7287 45.3958 66.578 45.3958H60.9635C60.6688 45.3965 60.3823 45.4248 60.1039 45.4806C61.1521 46.6493 61.731 48.1645 61.7291 49.7344V60.7083Z" fill="white"/>
<defs>
<linearGradient id="paint0_linear_321_1529" x1="0" y1="0.5" x2="97" y2="104.25" gradientUnits="userSpaceOnUse">
<stop stop-color="#036147"/>
<stop offset="1" stop-color="#013D2C"/>
</linearGradient>
</defs>
</svg>
