<svg width="100" height="101" viewBox="0 0 100 101" fill="none" xmlns="http://www.w3.org/2000/svg">
<rect y="0.5" width="100" height="100" rx="50" fill="url(#paint0_linear_321_1519)"/>
<path d="M50.4999 30.0833C39.2422 30.0833 30.0833 39.2422 30.0833 50.5V58.9586C30.0833 61.0493 31.9146 62.75 34.1666 62.75H36.2083C36.7497 62.75 37.269 62.5349 37.6519 62.152C38.0348 61.7691 38.2499 61.2498 38.2499 60.7083V50.208C38.2499 49.6666 38.0348 49.1472 37.6519 48.7644C37.269 48.3815 36.7497 48.1664 36.2083 48.1664H34.3544C35.4896 40.2651 42.2883 34.1667 50.4999 34.1667C58.7115 34.1667 65.5103 40.2651 66.6454 48.1664H64.7916C64.2501 48.1664 63.7308 48.3815 63.3479 48.7644C62.965 49.1472 62.7499 49.6666 62.7499 50.208V62.75C62.7499 65.002 60.9185 66.8333 58.6666 66.8333H54.5833V64.7917H46.4166V70.9167H58.6666C63.1705 70.9167 66.8332 67.2539 66.8332 62.75C69.0852 62.75 70.9166 61.0493 70.9166 58.9586V50.5C70.9166 39.2422 61.7577 30.0833 50.4999 30.0833Z" fill="white"/>
<defs>
<linearGradient id="paint0_linear_321_1519" x1="0" y1="0.5" x2="97" y2="104.25" gradientUnits="userSpaceOnUse">
<stop stop-color="#036147"/>
<stop offset="1" stop-color="#013D2C"/>
</linearGradient>
</defs>
</svg>
