<svg width="100" height="101" viewBox="0 0 100 101" fill="none" xmlns="http://www.w3.org/2000/svg">
<rect y="0.5" width="100" height="100" rx="50" fill="url(#paint0_linear_321_1491)"/>
<path d="M67.3438 38.25H59.6875C59.6875 35.8133 58.7195 33.4764 56.9965 31.7535C55.2736 30.0305 52.9367 29.0625 50.5 29.0625C48.0633 29.0625 45.7264 30.0305 44.0035 31.7535C42.2805 33.4764 41.3125 35.8133 41.3125 38.25H33.6562C32.844 38.25 32.0651 38.5727 31.4907 39.147C30.9164 39.7213 30.5938 40.5003 30.5938 41.3125V64.2812C30.5938 65.0935 30.9164 65.8724 31.4907 66.4468C32.0651 67.0211 32.844 67.3438 33.6562 67.3438H67.3438C68.156 67.3438 68.9349 67.0211 69.5093 66.4468C70.0836 65.8724 70.4062 65.0935 70.4062 64.2812V41.3125C70.4062 40.5003 70.0836 39.7213 69.5093 39.147C68.9349 38.5727 68.156 38.25 67.3438 38.25ZM44.375 45.9062C44.375 46.3124 44.2137 46.7018 43.9265 46.989C43.6393 47.2762 43.2499 47.4375 42.8438 47.4375C42.4376 47.4375 42.0482 47.2762 41.761 46.989C41.4738 46.7018 41.3125 46.3124 41.3125 45.9062V42.8438C41.3125 42.4376 41.4738 42.0482 41.761 41.761C42.0482 41.4738 42.4376 41.3125 42.8438 41.3125C43.2499 41.3125 43.6393 41.4738 43.9265 41.761C44.2137 42.0482 44.375 42.4376 44.375 42.8438V45.9062ZM50.5 32.125C52.1245 32.125 53.6824 32.7703 54.831 33.919C55.9797 35.0676 56.625 36.6255 56.625 38.25H44.375C44.375 36.6255 45.0203 35.0676 46.169 33.919C47.3176 32.7703 48.8755 32.125 50.5 32.125ZM59.6875 45.9062C59.6875 46.3124 59.5262 46.7018 59.239 46.989C58.9518 47.2762 58.5624 47.4375 58.1562 47.4375C57.7501 47.4375 57.3607 47.2762 57.0735 46.989C56.7863 46.7018 56.625 46.3124 56.625 45.9062V42.8438C56.625 42.4376 56.7863 42.0482 57.0735 41.761C57.3607 41.4738 57.7501 41.3125 58.1562 41.3125C58.5624 41.3125 58.9518 41.4738 59.239 41.761C59.5262 42.0482 59.6875 42.4376 59.6875 42.8438V45.9062Z" fill="white"/>
<defs>
<linearGradient id="paint0_linear_321_1491" x1="0" y1="0.5" x2="97" y2="104.25" gradientUnits="userSpaceOnUse">
<stop stop-color="#036147"/>
<stop offset="1" stop-color="#013D2C"/>
</linearGradient>
</defs>
</svg>
