<svg width="100" height="101" viewBox="0 0 100 101" fill="none" xmlns="http://www.w3.org/2000/svg">
<rect y="0.5" width="100" height="100" rx="50" fill="url(#paint0_linear_321_1505)"/>
<path d="M70.0266 50.5551C70.4205 50.5698 70.8134 50.5049 71.1817 50.3643C71.55 50.2237 71.8862 50.0103 72.1701 49.7368C72.454 49.4633 72.6798 49.1353 72.8341 48.7725C72.9883 48.4097 73.0678 48.0196 73.0678 47.6253C73.0678 47.2311 72.9883 46.8409 72.8341 46.4782C72.6798 46.1154 72.454 45.7874 72.1701 45.5139C71.8862 45.2404 71.55 45.0269 71.1817 44.8863C70.8134 44.7457 70.4205 44.6808 70.0266 44.6955C69.9633 44.6955 69.9041 44.7078 69.8388 44.7119L68.8547 40.8327C69.1801 40.5885 69.4508 40.279 69.6495 39.924C69.8483 39.569 69.9706 39.1764 70.0088 38.7714C70.0469 38.3663 70 37.9578 69.8709 37.5719C69.7419 37.1861 69.5337 36.8315 69.2597 36.5308C68.9856 36.2302 68.6517 35.9901 68.2794 35.8261C67.9071 35.662 67.5047 35.5776 67.0978 35.5781C66.691 35.5787 66.2888 35.6643 65.917 35.8295C65.5452 35.9946 65.212 36.2356 64.9388 36.537L54.955 31.8963C55.0599 31.5998 55.115 31.288 55.1184 30.9735C55.1287 30.5821 55.0605 30.1926 54.9179 29.828C54.7752 29.4634 54.561 29.131 54.2878 28.8506C54.0147 28.5701 53.6881 28.3472 53.3273 28.1949C52.9666 28.0427 52.5791 27.9643 52.1875 27.9643C51.796 27.9643 51.4085 28.0427 51.0477 28.1949C50.687 28.3472 50.3604 28.5701 50.0872 28.8506C49.8141 29.131 49.5998 29.4634 49.4572 29.828C49.3146 30.1926 49.2464 30.5821 49.2567 30.9735C49.2596 31.0735 49.2699 31.1731 49.2873 31.2716L42.9296 33.2214C42.4906 32.6759 41.8701 32.3063 41.1813 32.1801C40.4925 32.0539 39.7813 32.1795 39.1774 32.5339C38.5735 32.8884 38.117 33.4481 37.8914 34.1109C37.6657 34.7738 37.6857 35.4957 37.9479 36.145L31.9658 41.486C31.5155 41.2078 30.9967 41.0601 30.4673 41.0593C29.7669 41.056 29.0886 41.3043 28.556 41.7591C28.0234 42.2139 27.6719 42.8449 27.5655 43.5371C27.4591 44.2294 27.6049 44.9368 27.9764 45.5306C28.3479 46.1243 28.9203 46.5648 29.5893 46.7719L29.1933 50.5817C28.7468 50.6436 28.3207 50.8079 27.9482 51.0617C27.5758 51.3156 27.267 51.6521 27.0462 52.045C26.8253 52.438 26.6983 52.8766 26.675 53.3268C26.6518 53.7769 26.7329 54.2263 26.9121 54.6399C27.0913 55.0535 27.3637 55.4201 27.708 55.711C28.0523 56.0019 28.4592 56.2092 28.8969 56.3168C29.3346 56.4244 29.7913 56.4293 30.2312 56.3312C30.6712 56.2331 31.0825 56.0346 31.433 55.7512L33.4052 56.6189L33.3991 56.6801C33.402 57.4102 33.6776 58.1129 34.1718 58.6503C34.6661 59.1877 35.3432 59.521 36.0705 59.5849C36.7978 59.6488 37.5228 59.4387 38.1031 58.9957C38.6835 58.5528 39.0774 57.9089 39.2076 57.1905H41.4616C41.6385 57.8276 42.0264 58.3857 42.5618 58.7736C43.0972 59.1615 43.7484 59.3562 44.4088 59.3258C45.0692 59.2955 45.6998 59.0419 46.1974 58.6065C46.6949 58.1711 47.03 57.5798 47.1477 56.9292L53.4911 57.1375C53.955 57.539 54.5358 57.7806 55.1476 57.8265C55.7594 57.8725 56.3698 57.7204 56.8885 57.3927C60.469 59.3473 63.4892 62.1862 65.6615 65.639C65.5172 65.9865 65.443 66.3591 65.4431 66.7353C65.4403 67.2364 65.566 67.7298 65.8081 68.1684C66.0502 68.6071 66.4007 68.9763 66.8261 69.241C67.2516 69.5057 67.7377 69.6569 68.2382 69.6802C68.7387 69.7036 69.2369 69.5983 69.6851 69.3744C70.1333 69.1504 70.5167 68.8154 70.7986 68.4012C71.0805 67.987 71.2515 67.5074 71.2954 67.0083C71.3393 66.5092 71.2545 66.0072 71.0492 65.5501C70.8439 65.0931 70.5248 64.6963 70.1226 64.3976C69.0958 62.9059 68.3754 61.2251 68.0033 59.4527C68.506 59.2931 68.9556 58.9996 69.304 58.6037C69.6525 58.2078 69.8865 57.7244 69.9809 57.2056C70.0754 56.6867 70.0267 56.152 69.8402 55.6587C69.6536 55.1654 69.3362 54.7322 68.9221 54.4057L70.0266 50.5551ZM71.1801 47.6253C71.1797 47.8529 71.1119 48.0753 70.9852 48.2643C70.8585 48.4534 70.6787 48.6006 70.4684 48.6875C70.258 48.7744 70.0267 48.7971 69.8035 48.7526C69.5803 48.7081 69.3753 48.5984 69.2144 48.4375C69.0535 48.2766 68.9439 48.0716 68.8994 47.8484C68.8549 47.6253 68.8775 47.3939 68.9644 47.1836C69.0513 46.9733 69.1986 46.7934 69.3876 46.6667C69.5767 46.54 69.799 46.4722 70.0266 46.4718C70.3325 46.4718 70.6259 46.5933 70.8423 46.8097C71.0586 47.026 71.1801 47.3194 71.1801 47.6253ZM68.8445 44.9467C68.3656 45.1597 67.9529 45.4977 67.6498 45.9252C67.3466 46.3527 67.164 46.8539 67.1213 47.3763H64.8326C64.7987 46.9774 64.6831 46.5899 64.4931 46.2376C64.3031 45.8853 64.0427 45.5759 63.7281 45.3285L66.6007 41.3819C67.0406 41.4704 67.496 41.4422 67.9216 41.3003L68.8445 44.9467ZM64.2017 56.3126L58.285 54.7977C58.2613 54.1374 58.0128 53.5049 57.5806 53.0051L59.9694 49.7895C60.3365 50.134 60.7891 50.3738 61.2803 50.484C61.7715 50.5942 62.2833 50.5709 62.7624 50.4163L65.3185 54.3649C65.013 54.5998 64.7571 54.8928 64.5654 55.2271C64.3737 55.5614 64.2501 55.9303 64.2017 56.3126ZM42.8459 36.9944L51.1779 41.3554C51.0014 41.8733 50.9893 42.433 51.1432 42.9581L45.7941 45.7082C45.5215 45.3916 45.1841 45.1372 44.8048 44.9621C44.4255 44.7871 44.013 44.6955 43.5952 44.6935C43.5707 44.6949 43.5469 44.6976 43.5237 44.7017L41.5984 37.8213C42.079 37.6587 42.509 37.3737 42.8459 36.9944ZM65.6084 41.0144L62.8175 44.8446C62.3468 44.6813 61.8411 44.6467 61.3526 44.7443C60.8641 44.842 60.4105 45.0683 60.0388 45.3999L56.7905 42.9499C56.9023 42.6005 56.9269 42.229 56.8619 41.8678L64.4304 39.7037C64.6805 40.2493 65.0916 40.7052 65.6084 41.0103M61.9253 48.7728C61.6976 48.7724 61.4752 48.7045 61.2861 48.5777C61.097 48.4509 60.9497 48.2709 60.8629 48.0605C60.776 47.8501 60.7535 47.6186 60.7982 47.3954C60.8428 47.1721 60.9527 46.9671 61.1138 46.8063C61.2749 46.6455 61.4801 46.536 61.7034 46.4917C61.9267 46.4475 62.1581 46.4704 62.3684 46.5576C62.5787 46.6448 62.7584 46.7924 62.8849 46.9817C63.0113 47.171 63.0788 47.3936 63.0788 47.6213C63.0783 47.9268 62.9565 48.2197 62.7402 48.4356C62.524 48.6515 62.2309 48.7728 61.9253 48.7728ZM53.9648 43.3623C53.7372 43.3619 53.5149 43.2941 53.3258 43.1674C53.1368 43.0407 52.9895 42.8609 52.9026 42.6506C52.8157 42.4402 52.7931 42.2089 52.8376 41.9857C52.8821 41.7625 52.9917 41.5575 53.1526 41.3966C53.3135 41.2357 53.5185 41.1261 53.7417 41.0816C53.9649 41.0371 54.1962 41.0597 54.4066 41.1466C54.6169 41.2335 54.7968 41.3808 54.9234 41.5698C55.0501 41.7589 55.1179 41.9812 55.1184 42.2088C55.1178 42.5144 54.996 42.8073 54.7798 43.0232C54.5635 43.239 54.2704 43.3623 53.9648 43.3623ZM43.5931 46.4657C43.8208 46.4657 44.0434 46.5332 44.2327 46.6596C44.422 46.786 44.5696 46.9658 44.6568 47.176C44.744 47.3863 44.7669 47.6178 44.7227 47.8411C44.6784 48.0644 44.5689 48.2696 44.4081 48.4307C44.2473 48.5918 44.0423 48.7016 43.819 48.7463C43.5958 48.791 43.3643 48.7684 43.1539 48.6816C42.9434 48.5948 42.7635 48.4475 42.6367 48.2584C42.5099 48.0693 42.442 47.8469 42.4416 47.6192C42.4416 47.3133 42.5632 47.0199 42.7795 46.8035C42.9958 46.5872 43.2892 46.4657 43.5952 46.4657M46.527 47.6192C46.5261 47.262 46.4582 46.9081 46.3269 46.5759L51.5699 43.8809C51.8387 44.2684 52.1973 44.585 52.6151 44.8037C53.0328 45.0223 53.4974 45.1365 53.9689 45.1365L54.0179 45.1325L53.1318 52.605L45.1571 53.6135C44.9973 53.5625 44.8333 53.5256 44.6671 53.5033L44.0607 50.502C44.7469 50.3921 45.3717 50.0418 45.8235 49.5137C46.2753 48.9857 46.5246 48.3142 46.527 47.6192ZM44.273 55.2469C44.5006 55.2473 44.7229 55.3151 44.912 55.4418C45.101 55.5685 45.2483 55.7483 45.3352 55.9587C45.4221 56.169 45.4447 56.4003 45.4002 56.6235C45.3558 56.8467 45.2461 57.0517 45.0852 57.2126C44.9243 57.3735 44.7193 57.4832 44.4961 57.5277C44.2729 57.5721 44.0416 57.5495 43.8313 57.4626C43.6209 57.3757 43.4411 57.2284 43.3144 57.0394C43.1877 56.8503 43.1199 56.628 43.1195 56.4004C43.1195 56.0945 43.241 55.8011 43.4573 55.5847C43.6737 55.3684 43.9671 55.2469 44.273 55.2469ZM46.4699 54.4813L52.7031 53.6952C52.5282 54.0699 52.4368 54.4781 52.435 54.8915C52.4333 55.305 52.5212 55.7139 52.6929 56.0901L47.1538 55.9104C47.065 55.3791 46.828 54.8837 46.4699 54.4813ZM55.0714 44.9222C55.5877 44.7106 56.0331 44.3566 56.3556 43.9013L59.3895 46.188C59.1437 46.6039 59.0089 47.0761 58.9982 47.5591C58.9874 48.0422 59.1011 48.5199 59.3283 48.9463L56.7905 52.3559C56.4015 52.1307 55.965 52.0004 55.5162 51.9756C55.0675 51.9507 54.6192 52.0321 54.2078 52.213L55.0714 44.9222ZM67.0968 37.3517C67.3246 37.3517 67.5472 37.4192 67.7365 37.5457C67.9259 37.6723 68.0735 37.8521 68.1607 38.0625C68.2478 38.2729 68.2706 38.5044 68.2262 38.7278C68.1818 38.9512 68.0721 39.1564 67.911 39.3174C67.75 39.4784 67.5448 39.5881 67.3215 39.6325C67.0981 39.677 66.8666 39.6542 66.6561 39.567C66.4457 39.4799 66.2659 39.3323 66.1394 39.1429C66.0128 38.9535 65.9453 38.7309 65.9453 38.5032C65.9459 38.1976 66.0676 37.9047 66.2839 37.6888C66.5002 37.4729 66.7912 37.3517 67.0968 37.3517ZM64.3875 37.4048C64.243 37.7529 64.1687 38.1262 64.1691 38.5032C64.1691 38.5746 64.1854 38.642 64.1895 38.7135L56.57 40.8899C56.3276 40.4074 55.9561 40.0016 55.497 39.7176C55.0378 39.4336 54.5088 39.2825 53.9689 39.281C53.8811 39.281 53.7953 39.3015 53.7096 39.3076L52.6459 33.8563C53.3647 33.7421 54.0149 33.3635 54.4691 32.7947L64.3875 37.4048ZM52.1865 29.8179C52.4142 29.8179 52.6367 29.8854 52.826 30.0118C53.0154 30.1383 53.163 30.318 53.2502 30.5283C53.3374 30.7386 53.3603 30.97 53.316 31.1933C53.2718 31.4166 53.1623 31.6218 53.0015 31.7829C52.8406 31.9441 52.6356 32.0539 52.4124 32.0985C52.1892 32.1432 51.9577 32.1207 51.7473 32.0339C51.5368 31.947 51.3568 31.7997 51.2301 31.6106C51.1033 31.4216 51.0354 31.1991 51.035 30.9715C51.035 30.6659 51.1563 30.3728 51.3722 30.1565C51.588 29.9402 51.8809 29.8185 52.1865 29.8179ZM49.565 32.2516C49.7606 32.6539 50.0455 33.0063 50.3979 33.282C50.7503 33.5576 51.1609 33.7491 51.5985 33.842L52.7174 39.5689C52.2947 39.7711 51.9265 40.0714 51.6434 40.4448L43.3849 36.1246C43.6461 35.4897 43.6628 34.7805 43.4319 34.134L49.565 32.2516ZM40.6633 33.9013C40.891 33.9013 41.1136 33.9687 41.3029 34.0952C41.4922 34.2216 41.6398 34.4013 41.727 34.6116C41.8142 34.8219 41.8371 35.0533 41.7929 35.2767C41.7486 35.5 41.6391 35.7051 41.4783 35.8663C41.3175 36.0274 41.1125 36.1372 40.8892 36.1819C40.666 36.2265 40.4345 36.204 40.2241 36.1172C40.0137 36.0303 39.8337 35.8831 39.7069 35.694C39.5801 35.5049 39.5123 35.2825 39.5118 35.0548C39.5118 34.7492 39.6331 34.4561 39.849 34.2398C40.0649 34.0236 40.3578 33.9018 40.6633 33.9013ZM40.5817 37.9764L42.5213 44.9018C41.9607 45.1232 41.4817 45.5117 41.1493 46.0145L33.393 44.0361L33.3991 43.9891C33.3959 43.3214 33.1622 42.6752 32.7376 42.1598L38.5033 37.0168C38.767 37.3083 39.0868 37.5435 39.4436 37.7084C39.8004 37.8733 40.1868 37.9645 40.5796 37.9764M30.7674 53.4665C30.7674 53.6943 30.6999 53.9169 30.5733 54.1063C30.4468 54.2956 30.267 54.4432 30.0566 54.5304C29.8461 54.6175 29.6146 54.6404 29.3912 54.5959C29.1679 54.5515 28.9627 54.4418 28.8017 54.2808C28.6406 54.1197 28.5309 53.9146 28.4865 53.6912C28.4421 53.4678 28.4649 53.2363 28.552 53.0259C28.6392 52.8155 28.7868 52.6356 28.9762 52.5091C29.1655 52.3826 29.3881 52.315 29.6159 52.315C29.9211 52.3156 30.2137 52.4371 30.4295 52.6529C30.6454 52.8687 30.7669 53.1613 30.7674 53.4665ZM30.2161 50.598L30.602 46.9067C31.1684 46.8808 31.7151 46.6906 32.1752 46.3592C32.6352 46.0278 32.9889 45.5696 33.1929 45.0406L40.743 46.9659C40.6456 47.3508 40.6358 47.7527 40.7144 48.1419L31.8474 51.5923C31.4297 51.0877 30.8544 50.7382 30.2141 50.6M30.4632 42.8376C30.6908 42.8376 30.9134 42.9051 31.1027 43.0316C31.292 43.158 31.4396 43.3377 31.5268 43.548C31.614 43.7583 31.637 43.9897 31.5927 44.213C31.5484 44.4363 31.439 44.6415 31.2781 44.8026C31.1173 44.9638 30.9123 45.0736 30.6891 45.1183C30.4658 45.1629 30.2344 45.1404 30.0239 45.0536C29.8135 44.9667 29.6335 44.8194 29.5067 44.6304C29.38 44.4413 29.3121 44.2188 29.3117 43.9912C29.3117 43.6856 29.4329 43.3925 29.6488 43.1762C29.8647 42.9599 30.1576 42.8382 30.4632 42.8376ZM32.1312 54.9447C32.3549 54.5806 32.4922 54.1701 32.5325 53.7447C32.5729 53.3193 32.5152 52.8903 32.364 52.4906L41.0737 49.1015C41.2705 49.4385 41.5329 49.7327 41.8454 49.9666C42.1578 50.2005 42.514 50.3694 42.8928 50.4633L39.0851 55.7369C38.8944 55.1703 38.5342 54.6759 38.0532 54.3208C37.5723 53.9656 36.9938 53.7668 36.3962 53.7512C35.7985 53.7356 35.2105 53.904 34.7117 54.2336C34.2129 54.5632 33.8274 55.0381 33.6073 55.594L32.1312 54.9447ZM36.3248 57.8337C36.0972 57.8333 35.8749 57.7654 35.6858 57.6388C35.4968 57.5121 35.3495 57.3322 35.2626 57.1219C35.1757 56.9116 35.1531 56.6802 35.1976 56.457C35.2421 56.2338 35.3517 56.0289 35.5126 55.8679C35.6735 55.707 35.8785 55.5974 36.1017 55.5529C36.3249 55.5084 36.5562 55.531 36.7666 55.6179C36.9769 55.7048 37.1568 55.8521 37.2834 56.0412C37.4101 56.2302 37.4779 56.4526 37.4783 56.6801C37.4783 56.9861 37.3568 57.2795 37.1405 57.4958C36.9242 57.7121 36.6307 57.8337 36.3248 57.8337ZM43.2808 51.0839L43.6462 53.538C43.0324 53.6725 42.4783 54.0014 42.0664 54.4759C41.6544 54.9504 41.4065 55.5451 41.3596 56.1718H39.9304L43.2808 51.0839ZM55.3593 56.0554C55.1317 56.055 54.9093 55.9872 54.7203 55.8605C54.5312 55.7338 54.384 55.5539 54.2971 55.3436C54.2102 55.1333 54.1875 54.9019 54.232 54.6787C54.2765 54.4556 54.3862 54.2506 54.5471 54.0896C54.708 53.9287 54.913 53.8191 55.1362 53.7746C55.3593 53.7301 55.5907 53.7527 55.801 53.8396C56.0114 53.9265 56.1912 54.0738 56.3179 54.2629C56.4446 54.4519 56.5124 54.6743 56.5128 54.9018C56.5128 55.2078 56.3913 55.5012 56.1749 55.7175C55.9586 55.9338 55.6652 56.0554 55.3593 56.0554ZM68.3708 67.8868C68.1431 67.8868 67.9204 67.8193 67.7311 67.6928C67.5417 67.5662 67.3941 67.3864 67.307 67.176C67.2198 66.9656 67.197 66.7341 67.2414 66.5107C67.2859 66.2873 67.3955 66.0821 67.5566 65.9211C67.7176 65.7601 67.9228 65.6504 68.1462 65.606C68.3695 65.5615 68.6011 65.5843 68.8115 65.6715C69.0219 65.7586 69.2017 65.9062 69.3282 66.0956C69.4548 66.285 69.5223 66.5076 69.5223 66.7353C69.5218 67.0406 69.4003 67.3331 69.1844 67.549C68.9686 67.7648 68.676 67.8863 68.3708 67.8868ZM68.3708 63.8035C67.9816 63.8036 67.5963 63.8814 67.2376 64.0325C66.8789 64.1837 66.5541 64.405 66.2822 64.6835C64.1101 61.353 61.1601 58.6013 57.6868 56.6658C57.8573 56.4434 57.9942 56.1972 58.0931 55.9349L64.265 57.411C64.4225 58.0248 64.7754 58.5707 65.2704 58.9662C65.7654 59.3618 66.3756 59.5856 67.009 59.6038C67.2612 61.0995 67.7983 62.5329 68.5913 63.826C68.5158 63.8198 68.4464 63.8035 68.3708 63.8035ZM67.0927 57.8357C66.8651 57.8357 66.6425 57.7682 66.4532 57.6418C66.2639 57.5154 66.1163 57.3356 66.0291 57.1253C65.9419 56.9151 65.9189 56.6836 65.9632 56.4603C66.0075 56.237 66.1169 56.0318 66.2778 55.8707C66.4386 55.7096 66.6436 55.5998 66.8668 55.5551C67.0901 55.5104 67.3215 55.5329 67.532 55.6198C67.7424 55.7066 67.9224 55.8539 68.0492 56.043C68.1759 56.2321 68.2438 56.4545 68.2442 56.6822C68.2442 56.9878 68.123 57.2809 67.9071 57.4971C67.6912 57.7134 67.3983 57.8352 67.0927 57.8357ZM67.9992 53.9096C67.4261 53.7016 66.7989 53.6973 66.223 53.8973L63.6729 49.961C64.1893 49.5734 64.5627 49.0256 64.7346 48.4032H67.2111C67.3356 48.8495 67.5638 49.26 67.8771 49.6013C68.1904 49.9427 68.5799 50.2051 69.0139 50.3673L67.9992 53.9096Z" fill="white"/>
<defs>
<linearGradient id="paint0_linear_321_1505" x1="0" y1="0.5" x2="97" y2="104.25" gradientUnits="userSpaceOnUse">
<stop stop-color="#036147"/>
<stop offset="1" stop-color="#013D2C"/>
</linearGradient>
</defs>
</svg>
