<svg width="100" height="101" viewBox="0 0 100 101" fill="none" xmlns="http://www.w3.org/2000/svg">
<rect y="0.5" width="100" height="100" rx="50" fill="url(#paint0_linear_321_1501)"/>
<path d="M54.8304 47.3967C54.4476 47.0139 53.9284 46.7989 53.387 46.7989C52.8456 46.7989 52.3264 47.0139 51.9435 47.3967L50.5001 48.8381C49.7299 49.5819 48.6985 49.9935 47.6278 49.9842C46.5572 49.9749 45.5331 49.5454 44.776 48.7883C44.0189 48.0313 43.5894 47.0071 43.5801 45.9365C43.5708 44.8658 43.9824 43.8344 44.7262 43.0642L56.2208 31.5656C58.9422 30.9466 61.7895 31.2013 64.3578 32.2936C66.926 33.3858 69.0846 35.26 70.5265 37.6495C71.9684 40.0391 72.6203 42.8224 72.3894 45.6037C72.1586 48.3851 71.0567 51.0228 69.2405 53.1419L64.9367 57.5009L54.8304 47.3967ZM32.4538 35.1222C34.5658 33.0088 37.3292 31.6701 40.2968 31.3225C43.2643 30.975 46.2623 31.639 48.8055 33.2071L41.8373 40.1773C40.3281 41.6835 39.4678 43.7202 39.4402 45.8523C39.4127 47.9843 40.22 50.0426 41.6898 51.5873C43.1596 53.1319 45.1752 54.0406 47.306 54.1189C49.4367 54.1973 51.5137 53.4393 53.093 52.0068L53.387 51.727L62.0498 60.3878L53.387 69.0506C52.6212 69.8161 51.5828 70.2461 50.5001 70.2461C49.4173 70.2461 48.3789 69.8161 47.6131 69.0506L32.4517 53.8892C29.9632 51.4004 28.5652 48.0251 28.5652 44.5057C28.5652 40.9862 29.9652 37.6109 32.4538 35.1222Z" fill="white"/>
<defs>
<linearGradient id="paint0_linear_321_1501" x1="0" y1="0.5" x2="97" y2="104.25" gradientUnits="userSpaceOnUse">
<stop stop-color="#036147"/>
<stop offset="1" stop-color="#013D2C"/>
</linearGradient>
</defs>
</svg>
