<svg width="49" height="49" viewBox="0 0 49 49" fill="none" xmlns="http://www.w3.org/2000/svg">
<path fill-rule="evenodd" clip-rule="evenodd" d="M23.4791 6.125C25.4861 6.12515 27.4379 6.78222 29.0365 7.99586C30.635 9.2095 31.7923 10.913 32.3318 12.8462L32.4379 13.2647L36.2558 12.3113C36.5349 12.2418 36.8255 12.2321 37.1086 12.2827C37.3916 12.3334 37.6608 12.4432 37.8985 12.6052C38.1361 12.7671 38.3369 12.9774 38.4877 13.2223C38.6384 13.4672 38.7357 13.7411 38.7732 14.0262L38.7916 14.2917V17.9871C39.9426 19.0907 40.8859 20.3922 41.5764 21.8295L41.8582 22.4583H42.8749C43.375 22.4584 43.8576 22.642 44.2313 22.9743C44.605 23.3066 44.8438 23.7645 44.9023 24.2611L44.9166 24.5V30.625C44.9166 30.961 44.8337 31.2919 44.6752 31.5882C44.5168 31.8845 44.2876 32.1372 44.008 32.3237L43.7875 32.4503L41.4029 33.6446C40.4266 35.5333 39.0125 37.161 37.2787 38.3915L36.7499 38.7468V40.8333C36.7499 41.3334 36.5663 41.8161 36.234 42.1898C35.9017 42.5635 35.4438 42.8022 34.9471 42.8607L34.7083 42.875H28.5833C28.0832 42.8749 27.6005 42.6913 27.2268 42.359C26.8531 42.0267 26.6144 41.5688 26.5559 41.0722L26.5416 40.8333H24.4999C24.4999 41.3334 24.3163 41.8161 23.984 42.1898C23.6517 42.5635 23.1938 42.8022 22.6971 42.8607L22.4583 42.875H16.3333C15.8332 42.8749 15.3505 42.6913 14.9768 42.359C14.6031 42.0267 14.3644 41.5688 14.3059 41.0722L14.2916 40.8333V38.7468C12.8166 37.8038 11.5426 36.5787 10.5426 35.1418C9.54264 33.7049 8.83647 32.0845 8.46467 30.3739C7.26075 30.0156 6.196 29.296 5.41453 28.3126C4.63306 27.3292 4.17261 26.1294 4.0955 24.8757L4.08325 24.5V23.4792C4.08383 22.9588 4.28309 22.4583 4.64032 22.0799C4.99755 21.7015 5.48578 21.4738 6.00527 21.4433C6.52475 21.4128 7.03628 21.5818 7.43533 21.9158C7.83438 22.2498 8.09083 22.7236 8.15229 23.2403L8.16658 23.4792V24.5C8.16658 24.8022 8.23192 25.09 8.35034 25.3473C8.66196 23.5092 9.35714 21.7573 10.3906 20.2057C11.4241 18.6541 12.7727 17.3374 14.3488 16.3415C14.2039 15.0562 14.332 13.7549 14.7248 12.5226C15.1176 11.2902 15.7661 10.1547 16.628 9.19033C17.4898 8.22593 18.5456 7.45437 19.7262 6.92614C20.9068 6.39791 22.1857 6.12491 23.4791 6.125ZM32.6666 22.4583C32.1251 22.4583 31.6058 22.6734 31.2229 23.0563C30.84 23.4392 30.6249 23.9585 30.6249 24.5C30.6249 25.0415 30.84 25.5608 31.2229 25.9437C31.6058 26.3266 32.1251 26.5417 32.6666 26.5417C33.2081 26.5417 33.7274 26.3266 34.1103 25.9437C34.4931 25.5608 34.7083 25.0415 34.7083 24.5C34.7083 23.9585 34.4931 23.4392 34.1103 23.0563C33.7274 22.6734 33.2081 22.4583 32.6666 22.4583ZM23.4791 10.2083C22.2424 10.2083 21.0478 10.6573 20.1173 11.4718C19.1868 12.2863 18.5836 13.4109 18.4198 14.6367C19.4092 14.4069 20.4217 14.2912 21.4374 14.2917H28.3321L28.475 14.257C28.2329 13.1115 27.6044 12.0841 26.6948 11.347C25.7852 10.6099 24.6499 10.2078 23.4791 10.2083Z" fill="white"/>
</svg>
