<svg width="100" height="100" viewBox="0 0 100 100" fill="none" xmlns="http://www.w3.org/2000/svg">
<rect width="100" height="100" rx="50" fill="#036147"/>
<g clip-path="url(#clip0_321_1326)">
<path d="M67.0224 32.3938C67.7326 32.886 68.1052 33.7367 67.9716 34.5875L63.4716 63.8375C63.3662 64.5196 62.9513 65.1172 62.3466 65.4547C61.7419 65.7922 61.0177 65.8344 60.3779 65.5672L51.9685 62.0727L47.1521 67.2828C46.5263 67.9649 45.5419 68.1899 44.6771 67.8524C43.8123 67.5149 43.2498 66.6782 43.2498 65.75V59.8719C43.2498 59.5906 43.3552 59.3235 43.5451 59.1196L55.3294 46.2594C55.7373 45.8164 55.7232 45.1344 55.3013 44.7125C54.8794 44.2907 54.1974 44.2625 53.7544 44.6633L39.4529 57.3688L33.2443 54.261C32.499 53.8883 32.0208 53.143 31.9998 52.3133C31.9787 51.4836 32.4146 50.7102 33.1318 50.2953L64.6318 32.2953C65.3841 31.8664 66.3123 31.9086 67.0224 32.3938Z" fill="white"/>
</g>
<defs>
<clipPath id="clip0_321_1326">
<rect width="36" height="36" fill="white" transform="translate(32 32)"/>
</clipPath>
</defs>
</svg>
