<svg width="60" height="28" viewBox="0 0 60 28" fill="none" xmlns="http://www.w3.org/2000/svg">
<path fill-rule="evenodd" clip-rule="evenodd" d="M0 5.97475V18.702C0 24.5 2.4637 27.6818 8.49438 27.6818H21.3775C25.6955 28.1414 25.3416 22.3081 21.3775 22.5556H8.81292C6.41858 22.5556 5.80449 22.0253 5.80449 18.702V8.16667C5.80449 7.28283 6.26461 5.46566 8.67135 5.55051H18.2275C18.9354 5.55051 20.7688 5.76263 22.0146 8.16667L32.6326 25.596C32.8314 25.8781 32.9841 26.1348 33.1217 26.3662C33.7774 27.4687 34.0934 28 37.4461 28H39.7466C41.6225 28 45.1406 27.8727 47.3208 23.9697L58.5758 4.63132C59.4961 3.04041 60.3455 0 56.0629 0H47.1084C45.5157 0 42.0472 0.459596 39.8174 4.20707L34.4376 13.4697C33.7652 14.4949 32.9228 15.704 31.5354 13.4697L24.8815 2.29798C24.8306 2.22178 24.779 2.13813 24.7242 2.04937C24.2455 1.27328 23.5254 0.106061 20.9528 0.106061L5.17877 0.200339C4.11697 0.106063 0.0352896 0.959262 0 5.97475ZM44.7 7.53029L37.806 19.303L37.7862 19.3377C36.9429 20.8131 36.0278 22.4141 39.1848 22.4141H40.1747C41.8939 22.4141 42.6848 21.8485 43.8515 19.8333L50.7454 7.91918C51.2404 7.10605 52.0535 5.30302 49.6848 5.30302H47.6343C46.8565 5.30302 45.7252 5.76263 44.7 7.53029Z" fill="white"/>
</svg>
