<svg width="96" height="45" viewBox="0 0 96 45" fill="none" xmlns="http://www.w3.org/2000/svg">
<path fill-rule="evenodd" clip-rule="evenodd" d="M0 9.60227V30.0568C0 39.375 3.95951 44.4886 13.6517 44.4886H34.3567C41.2963 45.2272 40.7275 35.8523 34.3567 36.25H14.1636C10.3156 36.25 9.32864 35.3977 9.32864 30.0568V13.125C9.32864 11.7045 10.0681 8.78409 13.9361 8.92045H29.2942C30.4319 8.92045 33.3783 9.26136 35.3806 13.125L52.4452 41.1363C52.7648 41.5898 53.0101 42.0023 53.2313 42.3742C54.2851 44.1461 54.793 45 60.1811 45H63.8785C66.8932 45 72.5473 44.7954 76.0512 38.5227L94.1397 7.44318C95.6186 4.88637 96.9838 0 90.1011 0H75.7099C73.1502 0 67.5758 0.738636 63.9922 6.76136L55.3462 21.6477C54.2654 23.2954 52.9116 25.2386 50.6818 21.6477L39.988 3.69318C39.9063 3.57071 39.8234 3.43628 39.7354 3.29362C38.9659 2.04634 37.8087 0.170455 33.6741 0.170455L8.32301 0.321973C6.61655 0.170458 0.0567153 1.54167 0 9.60227ZM71.8391 12.1023L60.7596 31.0227L60.7277 31.0785C59.3724 33.4496 57.9017 36.0227 62.9755 36.0227H64.5664C67.3294 36.0227 68.6005 35.1136 70.4755 31.875L81.5551 12.7273C82.3505 11.4204 83.6573 8.52272 79.8505 8.52272H76.5551C75.3051 8.52273 73.4869 9.26138 71.8391 12.1023Z" fill="#036147"/>
</svg>
