<svg width="45" height="22" viewBox="0 0 45 22" fill="none" xmlns="http://www.w3.org/2000/svg">
<path fill-rule="evenodd" clip-rule="evenodd" d="M0.202796 4.58038L0.151648 14.0348C0.128347 18.3418 1.94571 20.7153 6.42558 20.7395L15.9958 20.7913C19.2015 21.1501 18.962 16.8154 16.0164 16.9833L6.68281 16.9328C4.90418 16.9232 4.45014 16.5268 4.46349 14.0581L4.50583 6.23196C4.50938 5.57541 4.85848 4.22738 6.64598 4.30008L13.7447 4.33848C14.2706 4.34133 15.6316 4.50627 16.5475 6.29711L24.3649 19.2871C24.5115 19.4975 24.6239 19.6887 24.7252 19.8612C25.2078 20.6828 25.4404 21.0788 27.931 21.0922L29.6399 21.1015C31.0334 21.109 33.6473 21.0286 35.2825 18.138L43.721 3.81782C44.411 2.63971 45.0542 0.384573 41.8729 0.367362L35.2211 0.331376C34.038 0.324976 31.4596 0.652446 29.7881 3.42728L25.7545 10.2864C25.2509 11.0453 24.6203 11.9401 23.5986 10.2747L18.7007 1.9491C18.6632 1.89229 18.6252 1.82994 18.5849 1.76378C18.2323 1.18535 17.7021 0.315389 15.7911 0.30505L4.07303 0.311692C3.28465 0.237393 0.249166 0.854785 0.202796 4.58038ZM33.4018 5.91558L28.2333 14.6332L28.2185 14.6589C27.5861 15.7515 26.8999 16.9371 29.2451 16.9498L29.9804 16.9538C31.2575 16.9607 31.8473 16.5437 32.7221 15.0514L37.8911 6.22876C38.262 5.62672 38.8733 4.29061 37.1137 4.28109L35.5905 4.27285C35.0127 4.26972 34.1705 4.6066 33.4018 5.91558Z" fill="#036147"/>
</svg>
