<svg width="24" height="24" viewBox="0 0 24 24" fill="none" xmlns="http://www.w3.org/2000/svg">
<path d="M21.9715 18.3327C21.9715 18.6927 21.8915 19.0627 21.7215 19.4227C21.5515 19.7827 21.3315 20.1227 21.0415 20.4427C20.5515 20.9827 20.0115 21.3727 19.4015 21.6227C18.8015 21.8727 18.1515 22.0027 17.4515 22.0027C16.4315 22.0027 15.3415 21.7627 14.1915 21.2727C13.0415 20.7827 11.8915 20.1227 10.7515 19.2927C9.60146 18.4527 8.51146 17.5227 7.47146 16.4927C6.44146 15.4527 5.51146 14.3627 4.68146 13.2227C3.86146 12.0827 3.20146 10.9427 2.72146 9.81269C2.24146 8.67269 2.00146 7.58269 2.00146 6.54269C2.00146 5.86269 2.12146 5.21269 2.36146 4.61269C2.60146 4.00269 2.98146 3.44269 3.51146 2.94269C4.15146 2.31269 4.85146 2.00269 5.59146 2.00269C5.87146 2.00269 6.15146 2.06269 6.40146 2.18269C6.66146 2.30269 6.89146 2.48269 7.07146 2.74269L9.39146 6.01269C9.57146 6.26269 9.70146 6.49269 9.79146 6.71269C9.88146 6.92269 9.93146 7.13269 9.93146 7.32269C9.93146 7.56269 9.86146 7.80269 9.72146 8.03269C9.59146 8.26269 9.40146 8.50269 9.16146 8.74269L8.40146 9.53269C8.29146 9.64269 8.24146 9.77269 8.24146 9.93269C8.24146 10.0127 8.25146 10.0827 8.27146 10.1627C8.30146 10.2427 8.33146 10.3027 8.35146 10.3627C8.53146 10.6927 8.84146 11.1227 9.28146 11.6427C9.73146 12.1627 10.2115 12.6927 10.7315 13.2227C11.2715 13.7527 11.7915 14.2427 12.3215 14.6927C12.8415 15.1327 13.2715 15.4327 13.6115 15.6127C13.6615 15.6327 13.7215 15.6627 13.7915 15.6927C13.8715 15.7227 13.9515 15.7327 14.0415 15.7327C14.2115 15.7327 14.3415 15.6727 14.4515 15.5627L15.2115 14.8127C15.4615 14.5627 15.7015 14.3727 15.9315 14.2527C16.1615 14.1127 16.3915 14.0427 16.6415 14.0427C16.8315 14.0427 17.0315 14.0827 17.2515 14.1727C17.4715 14.2627 17.7015 14.3927 17.9515 14.5627L21.2615 16.9127C21.5215 17.0927 21.7015 17.3027 21.8115 17.5527C21.9115 17.8027 21.9715 18.0527 21.9715 18.3327Z" stroke="white" stroke-width="1.875" stroke-miterlimit="10"/>
<path d="M18.5022 9.00195C18.5022 8.40195 18.0322 7.48195 17.3322 6.73195C16.6922 6.04195 15.8422 5.50195 15.0022 5.50195" stroke="white" stroke-width="1.875" stroke-linecap="round" stroke-linejoin="round"/>
<path d="M22.0022 9.00269C22.0022 5.13269 18.8722 2.00269 15.0022 2.00269" stroke="white" stroke-width="1.875" stroke-linecap="round" stroke-linejoin="round"/>
</svg>
